<svg fill='white' xmlns="http://www.w3.org/2000/svg" width="682.667" height="682.667" version="1.0" viewBox="0 0 512 512"><path d="M121.8 1.1c-16.7 2-36.4 8.5-51.4 17C31.6 40.4 6 79.2 1.1 123.3c-1.5 13.3-1.5 252.1 0 265.4C8.2 453 59 503.8 123.3 510.9c13.3 1.5 252.1 1.5 265.4 0 64.3-7.1 115.1-57.9 122.2-122.2 1.5-13.3 1.5-252.1 0-265.4C503.8 59 453 8.2 388.7 1.1c-11.8-1.3-255.4-1.3-266.9 0zm277.3 32.1c20.8 5.7 36.8 14.8 50.8 28.9 14.1 14 23.2 30 29 50.8l2.6 9.6v267l-2.6 9.6c-5.8 20.8-14.9 36.8-29 50.8-14 14.1-30 23.2-50.8 29l-9.6 2.6h-267l-9.6-2.6c-20.8-5.8-36.8-14.9-50.8-29-14.1-14-23.2-30-29-50.8l-2.6-9.6v-267l2.6-9.6C38.9 92.1 48 76.1 62 62.1c16.6-16.6 38.5-27.6 61.5-31 3.3-.5 64.5-.8 136-.7l130 .1 9.6 2.7z"/><path d="M394.5 66.7c-24.4 3.4-41 27.1-35.1 50.1 4.1 16.3 14.5 26.6 30.7 30.8 27.5 7 54.5-17.9 49.9-46-2.5-15.7-14-28.9-29-33.4-4.4-1.3-12.5-2-16.5-1.5zm11.2 31.9c5.4 3.4 6.3 11.7 1.8 16.4-3.7 3.8-8.2 4.7-12.8 2.5-7-3.3-8.5-12.5-2.9-17.7 4.1-3.9 8.9-4.3 13.9-1.2zM236.7 117.5c-55.3 7.6-102 49.2-116.1 103.7-12.4 47.7 1.5 98.1 36.8 133.4 55 55 142.2 55 197.2 0s55-142.2 0-197.2c-31.6-31.5-73.9-45.9-117.9-39.9zm35.3 30c24 3.6 44.4 13.9 61.5 31 43.1 43 43.1 112 0 155-43 43.1-112 43.1-155 0-43.1-43-43.1-112 0-155 24.9-24.9 59.1-36.3 93.5-31z"/></svg>