<svg fill='white' xmlns="http://www.w3.org/2000/svg" width="682.667" height="682.667" version="1.0" viewBox="0 0 512 512"><path d="M44.5 1.2c-2.7.5-8.7 2.7-13.2 4.9-34.2 16.4-41.7 62.3-14.7 89.3 27 27.1 72.8 19.5 89.4-14.8C126.3 38.7 90.6-7.5 44.5 1.2zM0 336v176h115V160H0v176zM160 336v176h115V319.2l6.7-8.4c8.6-10.8 29.9-31.9 38.8-38.6 20.5-15.2 39.1-19.9 53-13.3 7.7 3.6 15.7 12.3 20.8 22.5l3.7 7.5V512h114.1l-.4-127.2c-.4-140.2.1-130.4-6.6-148.7-10-27.4-29-49.1-54.7-62.3-29.4-15.2-61-17.7-93.9-7.3-12 3.8-32.8 14.6-43 22.2-9 6.7-29.4 26.2-35.3 33.8l-3.1 4-.1-33.3V160H160v176z"/></svg>