<?xml version="1.0" standalone="no"?>
<!DOCTYPE svg PUBLIC "-//W3C//DTD SVG 20010904//EN"
 "http://www.w3.org/TR/2001/REC-SVG-20010904/DTD/svg10.dtd">
<svg version="1.0" xmlns="http://www.w3.org/2000/svg"
 width="512.000000pt" height="512.000000pt" viewBox="0 0 512.000000 512.000000"
 preserveAspectRatio="xMidYMid meet">

<g transform="translate(0.000000,512.000000) scale(0.100000,-0.100000)"
fill="#000000" stroke="none">
<path d="M2145 4313 c-81 -7 -212 -35 -305 -65 -523 -168 -908 -604 -1016
-1153 -25 -125 -25 -405 -1 -530 118 -602 564 -1067 1148 -1196 480 -105 989
35 1341 369 251 240 400 521 459 872 18 107 15 344 -5 465 -46 264 -174 534
-350 733 -321 364 -786 549 -1271 505z m405 -342 c212 -48 391 -145 552 -299
480 -459 486 -1209 14 -1677 -404 -400 -1014 -454 -1491 -131 -141 95 -302
281 -384 443 -126 250 -154 568 -74 843 125 432 497 762 941 835 115 19 328
12 442 -14z"/>
<path d="M2210 3428 c-19 -13 -45 -43 -57 -68 -21 -40 -23 -58 -23 -207 l0
-163 -163 0 c-149 0 -167 -2 -207 -22 -66 -34 -93 -79 -88 -149 5 -65 32 -109
82 -133 27 -13 68 -16 204 -16 l170 0 4 -177 c3 -166 5 -180 27 -216 61 -99
193 -101 265 -3 19 25 22 46 26 209 l5 182 182 5 c163 4 184 7 209 26 98 72
96 204 -3 265 -36 22 -50 24 -215 27 l-178 4 0 170 c0 189 -8 221 -63 260 -47
34 -132 36 -177 6z"/>
<path d="M3446 1780 c-42 -13 -95 -68 -107 -112 -7 -27 -6 -51 1 -80 10 -38
57 -88 378 -410 397 -397 389 -390 479 -373 49 9 109 69 118 118 17 90 22 83
-363 470 -196 197 -368 364 -382 372 -36 19 -90 25 -124 15z"/>
</g>
</svg>
