<svg fill='white' xmlns="http://www.w3.org/2000/svg" width="682.667" height="682.667" version="1.0" viewBox="0 0 512 512"><path d="M336.7 49.6c-40.8 7.4-73.1 37.2-83.8 77.6-1.9 6.9-2.3 11-2.3 24.8-.1 9.1.2 18.4.7 20.8l.7 4.4-6.7-.7c-44.1-4-79.7-14.1-115.2-32.6-32.8-17.1-66.9-44-87.8-69.1-3.2-3.8-6.2-6.7-6.7-6.5-.6.2-2.7 4.2-4.8 9-14.4 32.5-11.7 70 7 99.2 5.5 8.5 14.5 18.6 21.8 24.4l7.5 6.1H63c-8.8 0-27.1-5-37-10-2.1-1.1-4.3-2-4.7-2-1.4 0 .4 18.3 2.7 27.1 9.1 34.5 34.7 61.8 68.8 73.2 5.6 1.9 9.6 3.7 8.8 4-4.5 1.7-19.3 2.9-30.8 2.5l-13-.6.7 2.6c1.1 4.4 8.5 18.4 13.1 24.8 17.6 24.8 46.5 41.8 74.7 44.1 4.2.3 7.7.9 7.7 1.4 0 1.6-22.4 15.5-36.1 22.3-31.2 15.5-62.1 22.2-98.4 21.4L1 417.4l5.2 3.3c7.7 4.8 30.9 16.5 41.3 20.8 56.1 23.3 121.6 28.6 183.4 14.9 90.9-20.2 165.8-83.4 203.6-171.9 16.1-37.8 24.2-75 25.1-115l.3-18 7.3-5.8c9.2-7.5 19.6-17.4 27.5-26.2 6.7-7.6 16.5-20.7 15.9-21.2-.2-.2-3.2.8-6.7 2.2-13.3 5.4-44 13.2-48.6 12.3-1.1-.2-.3-1.2 2.6-3.1 7.6-5 21.1-18.9 26.8-27.5 5-7.4 12.3-22.1 12.3-24.7 0-.6-6.1 2-13.6 5.7-13.6 6.6-31.3 13-45.1 16.3l-7.3 1.7-6.1-5.6c-23.4-21.7-57.1-31.6-88.2-26z"/></svg>